<svg id="Layer_1" data-name="Layer 1" xmlns="http://www.w3.org/2000/svg" viewBox="0 0 1000 1000"><defs><style>.cls-1{fill:#001f29;}.cls-2{fill:#a22b02;}</style></defs><path class="cls-1" d="M802.92,534.58C779,364.89,617.24,246.57,445.58,272.17c-17.36,2.59-13.47,7.2-7.8,17.8,52.94,98.84,158.56,147.19,268.53,122,10.62-2.45,16.63-.62,23.11,8.77,87.57,127,55.45,304.67-71.5,393h0c-11.46,2-19.85,10.52-30.38,14.45h0c-.72.25-1.44.51-2.17.72-87.73,43-175.44,44.44-263.19-.06-.75-.24-1.48-.49-2.2-.77h0c-10.58-4-19-12.66-30.64-14.44-97-65.71-143-191.8-111.16-306.45,20.41-73.57,63.64-130.26,128.75-170.31,6-3.71,13.85-4.9,8.16-16.59-6.63-13.55-11.66-14.19-24.17-6.52a313.67,313.67,0,0,0-132.41,372C247.08,824.63,388.86,911,535.73,891.19,708.56,867.88,827.5,709.13,802.92,534.58ZM478.25,298.53c66-12.79,177.48,30.85,219.88,87C604.39,408.55,519.4,363.92,478.25,298.53Z"/><path class="cls-2" d="M712.79,691.87c-7.11,9.16-12.27,8.44-19,.53-3.39-4-7.4-7.44-11.14-11.13-4.47-6.18-10.77-10.55-16-16-7-7.34-11-3.64-13.51,4.21-.81,45.7-1,91.37.15,137a15,15,0,0,0,4.4,7l.2.22c-11.46,2-19.85,10.52-30.38,14.45-3.59-6.32-2.21-13.64-2.24-20.51-.2-48.82-.43-97.63.11-146.44.16-14.79-4.72-26.06-15.75-35.53q-52.86-45.39-103.77-93c-8.44-7.93-15.46-8.07-24.32-.05-33.14,30-65.76,60.55-99.93,89.35-14.15,11.93-19.89,25.94-19.48,44.68,1.05,47,.44,94.09.26,141.13,0,6.83,1.24,14.09-2.45,20.25h0c-10.58-4-19-12.66-30.64-14.44v-153c-13.74,12.09-26.45,22.05-37.62,33.51-8.65,8.87-12.58,3.19-17.55-3.06-4.41-5.55-11.54-9.2-1.76-17.73Q377.47,581.76,481.55,489c9.87-8.75,17.3-6,26,1.73,68.22,60.49,136.42,121,205.25,180.77C722.77,680.2,718.79,684.15,712.79,691.87Z"/><path class="cls-1" d="M707.9,30.59c-6.67-3.8-9.73-3.39-13.72,3a289.68,289.68,0,0,0-23.94,46.94C627,189.24,659.94,288.74,759.42,349.83c5.86,3.61,10.56,8.78,16.93-.91,26-39.49,43.78-81.57,44.5-121.64C821.09,148.53,772.27,67.41,707.9,30.59Zm61.86,275.55c-5.12,10.4-9,11.85-18.82,4.27C688,262,665.38,192.34,688.19,114.1a256.2,256.2,0,0,1,20.12-49.45c50.7,43.29,86.56,92.19,84.5,160.85C791.94,254.24,782.34,280.56,769.76,306.14Z"/></svg>